<svg width="56" height="55" viewBox="0 0 56 55" fill="none" xmlns="http://www.w3.org/2000/svg">
<path d="M0 20.9901V11.25V1.50992C0 0.676016 0.676015 0 1.50992 0H10.4838H19.6558C20.4076 0 21.0449 0.55307 21.1507 1.29738L21.455 3.43751L21.9063 6.61973C21.9303 6.7887 21.9254 6.96052 21.8919 7.12787L21.505 9.0625L21.3095 10.037C21.1681 10.7424 20.5485 11.25 19.8291 11.25H16.1588H12.7599C11.926 11.25 11.25 11.926 11.25 12.7599V16.875V20.9901C11.25 21.824 11.926 22.5 12.7599 22.5H21.875H30.9901C31.824 22.5 32.5 21.824 32.5 20.9901V16.875V12.7599C32.5 11.926 33.176 11.25 34.0099 11.25H38.125H42.2401C43.074 11.25 43.75 11.926 43.75 12.7599V21.8037V30.9518C43.75 31.7434 44.3613 32.4006 45.1508 32.4578L49.0625 32.7413L53.0727 33.0309C53.8205 33.085 54.4154 33.6795 54.4698 34.4273L54.7563 38.3625L55.0269 42.0933C55.0873 42.9253 54.4615 43.6486 53.6295 43.7086L49.7563 43.9875L45.6784 44.2812C44.9301 44.335 44.3349 44.9301 44.2809 45.6784L43.9913 49.6875L43.7078 53.5992C43.6506 54.3887 42.9934 55 42.2018 55H38.0538H34.0099C33.176 55 32.5 54.324 32.5 53.4901V44.375V35.2599C32.5 34.426 31.824 33.75 30.9901 33.75H27.5H23.9006C23.1107 33.75 22.4542 34.3589 22.395 35.1467L22.3825 35.3125L22.265 36.875L22.07 45.625L21.9079 52.8988C21.8896 53.7194 21.2192 54.375 20.3984 54.375H16.25H12.1021C11.2811 54.375 10.6106 53.7191 10.5926 52.8983L10.275 38.4375L9.95743 23.9768C9.93941 23.156 9.26886 22.5 8.44787 22.5H4.9625H1.50992C0.676016 22.5 0 21.824 0 20.9901Z" fill="#FAF1B1"/>
</svg>
