<svg width="56" height="55" viewBox="0 0 56 55" fill="none" xmlns="http://www.w3.org/2000/svg">
<path d="M0.660047 7.85593L0.625934 5.3125L0.59573 3.06035C0.573152 1.37684 1.93166 0 3.61531 0H6.49219H9.40984C11.0777 0 12.4297 1.35203 12.4297 3.01985V5.625V8.23015C12.4297 9.89797 13.7817 11.25 15.4495 11.25H23.0047H30.6632C32.2896 11.25 33.6239 12.538 33.6812 14.1634L33.9422 21.5625L34.2023 28.9612C34.2594 30.5868 35.5937 31.875 37.2203 31.875H39.3047H41.4945C43.0781 31.875 44.3928 30.6516 44.5065 29.072L44.6922 26.4938L44.8626 24.1274C44.9825 22.4632 46.4292 21.2117 48.0932 21.3324L50.3172 21.4937L52.7541 21.6711C54.3327 21.786 55.5547 23.1003 55.5547 24.683V27.5V30.1052C55.5547 31.773 54.2027 33.125 52.5349 33.125H50.5547H48.4764C46.8474 33.125 45.512 34.417 45.4582 36.0452L45.1934 44.0625L44.9286 52.0798C44.8749 53.708 43.5394 55 41.9104 55H39.2559H36.6995C35.0317 55 33.6797 53.648 33.6797 51.9802V44.5212V36.3583C33.6797 34.9916 32.7617 33.7952 31.4416 33.4414L30.8672 33.2875L28.4278 32.6337C28.1801 32.5673 27.9249 32.5328 27.6685 32.5309L25.8672 32.5175C24.6619 32.5079 23.6797 33.4822 23.6797 34.6876V38.125V40.7301C23.6797 42.398 22.3277 43.75 20.6598 43.75H18.0547H15.4495C13.7817 43.75 12.4297 45.102 12.4297 46.7698V49.375V51.9802C12.4297 53.648 11.0777 55 9.40984 55H6.80469H4.19954C2.53172 55 1.17969 53.648 1.17969 51.9801V49.375V46.7698C1.17969 45.102 2.53172 43.75 4.19954 43.75H6.25093H8.07682C9.83061 43.75 11.2155 42.2611 11.0888 40.5119L10.9384 38.4375L10.7495 35.8215C10.6386 34.2865 9.39105 33.0804 7.85314 33.0214L6.80469 32.9813L3.05469 32.8362L1.80469 32.6675C1.08881 32.5709 0.554688 31.9598 0.554688 31.2374V27.1863V24.6846C0.554688 23.1012 1.77768 21.7867 3.35697 21.6726L5.86719 21.4913L8.37812 21.3093C9.9571 21.1949 11.1797 19.8805 11.1797 18.2973V16.25V14.1999C11.1797 12.6179 9.95881 11.3041 8.38107 11.1882L5.93844 11.0087L3.45911 10.8272C1.8966 10.7128 0.681059 9.42248 0.660047 7.85593Z" fill="#FAF1B1"/>
</svg>
