<svg width="30" height="30" viewBox="0 0 30 30" fill="none" xmlns="http://www.w3.org/2000/svg">
<path d="M0 11.1436V6.12065V1.09772C0 0.491465 0.491466 0 1.09772 0H5.75342H10.4465C11.0377 0 11.5227 0.468196 11.5435 1.05902L11.704 5.61059L11.8666 10.2359C11.8863 10.7963 12.3253 11.2518 12.8846 11.2922L14.7915 11.43L16.5048 11.5541C17.1406 11.6002 17.6819 11.0968 17.6819 10.4593V5.81939V1.09772C17.6819 0.491465 18.1733 0 18.7796 0H20.7422H22.7048C23.311 0 23.8025 0.491464 23.8025 1.09772V6.08189V11.142C23.8025 11.7175 23.3581 12.1953 22.7841 12.2369L20.9122 12.3725L18.9301 12.5157C18.4034 12.5538 17.9785 12.9614 17.9186 13.486L17.7988 14.5345L17.6359 15.9614C17.5979 16.2939 17.7136 16.6255 17.9503 16.8622L18.33 17.2419L18.7658 17.6777C18.9698 17.8817 19.2459 17.9972 19.5344 17.9992L24.3336 18.0328L28.5698 18.0624C29.142 18.0664 29.6152 18.5094 29.6569 19.0802L29.7912 20.9204L29.915 22.6106C29.9611 23.2401 29.4682 23.7787 28.8371 23.7884L17.89 23.9569L6.78619 24.1271C6.21715 24.1359 5.74915 24.578 5.70815 25.1456L5.57182 27.0329L5.43616 28.9048C5.39457 29.4787 4.91678 29.9232 4.34132 29.9232H2.68152H1.09772C0.491465 29.9232 0 29.4317 0 28.8254V26.9036V24.8952C0 24.3242 0.437869 23.8485 1.00699 23.8013L2.55028 23.6733L4.12821 23.5428C4.68274 23.497 5.11527 23.0435 5.13481 22.4874L5.29776 17.8519L5.45557 13.3777C5.47748 12.7567 4.97996 12.2413 4.35854 12.2413H2.74749H1.09772C0.491466 12.2413 0 11.7498 0 11.1436Z" fill="#70BC9C"/>
</svg>
