<svg width="30" height="30" viewBox="0 0 30 30" fill="none" xmlns="http://www.w3.org/2000/svg">
<path d="M11.3493 10.583V5.84662V1.11025C11.3493 0.497077 11.8464 0 12.4596 0H14.7885H17.1174C17.7306 0 18.2277 0.497077 18.2277 1.11025V5.84662V10.583C18.2277 11.1962 18.7248 11.6932 19.3379 11.6932H24.1135H28.8064C29.4512 11.6932 29.9603 12.2406 29.9137 12.8837L29.7882 14.6165L29.6426 16.6312C29.6045 17.1594 29.1985 17.5872 28.673 17.6528L26.8256 17.8838L25.0129 18.1104C24.472 18.178 24.0602 18.6283 24.0411 19.173L23.8748 23.9024L23.7125 28.5059C23.6914 29.1034 23.2008 29.577 22.6029 29.577H20.6076H18.6501C18.0369 29.577 17.5398 29.0799 17.5398 28.4667V23.7304V18.994C17.5398 18.3808 17.0428 17.8838 16.4296 17.8838H14.7885H13.1474C12.5342 17.8838 12.0371 18.3808 12.0371 18.994V23.7304V28.4667C12.0371 29.0799 11.5401 29.577 10.9269 29.577H8.9419H6.95687C6.34369 29.577 5.84662 29.0799 5.84662 28.4667V21.0182V13.4929C5.84662 12.9108 5.39712 12.4276 4.8166 12.3855L2.92331 12.2483L1.03027 12.1116C0.449638 12.0696 0 11.5864 0 11.0042V8.94188V6.95687C0 6.34369 0.497078 5.84662 1.11025 5.84662H3.09529H5.15759C5.73972 5.84662 6.22301 6.29625 6.26495 6.87687L6.40171 8.76992L6.53891 10.6632C6.58099 11.2437 7.06423 11.6932 7.64626 11.6932H8.9811H10.2391C10.8522 11.6932 11.3493 11.1962 11.3493 10.583Z" fill="#70BC9C"/>
</svg>
