<svg width="30" height="29" viewBox="0 0 30 29" fill="none" xmlns="http://www.w3.org/2000/svg">
<path d="M0 4.92161V2.99862V1.07558C0 0.481553 0.481553 0 1.07558 0H3.33179H5.58797C6.182 0 6.66355 0.481553 6.66355 1.07558V2.62545V4.26015C6.66355 4.81971 7.09259 5.2858 7.65024 5.33205L9.16239 5.45746L10.7434 5.58815C11.2717 5.63182 11.6894 6.05388 11.7276 6.58258L11.8658 8.49603L11.9987 10.3302C12.0395 10.8926 12.5076 11.328 13.0715 11.328H14.6598H16.2482C16.812 11.328 17.2802 10.8926 17.3209 10.3302L17.4539 8.49603L17.5914 6.59226C17.6299 6.05933 18.0537 5.63546 18.5867 5.59697L20.4904 5.45944L22.3246 5.32653C22.887 5.28578 23.3224 4.81763 23.3224 4.25376V2.62745V1.07558C23.3224 0.481553 23.804 0 24.398 0H26.6609H28.836C29.4635 0 29.9577 0.534861 29.9083 1.16035L29.7761 2.83201L29.6226 4.77939C29.5821 5.29302 29.1831 5.70581 28.6711 5.76365L26.6042 5.99719L24.5772 6.22623C24.0476 6.28607 23.6418 6.72464 23.623 7.25722L23.4624 11.8278L23.3051 16.2876C23.2846 16.8665 22.8094 17.3252 22.2302 17.3252H20.6304H19.0672C18.4732 17.3252 17.9916 17.8068 17.9916 18.4008V19.9907V21.5805C17.9916 22.1745 18.4731 22.6561 19.0672 22.6561H20.657H22.2469C22.8409 22.6561 23.3224 23.1376 23.3224 23.7316V25.6547V27.5777C23.3224 28.1717 22.8409 28.6533 22.2469 28.6533H20.3239H18.4008C17.8068 28.6533 17.3253 28.1717 17.3253 27.5777V25.9879V24.398C17.3253 23.804 16.8437 23.3224 16.2497 23.3224H14.6598H13.07C12.476 23.3224 11.9944 23.804 11.9944 24.398V25.9879V27.5777C11.9944 28.1717 11.5129 28.6533 10.9188 28.6533H8.99581H7.07277C6.47874 28.6533 5.99719 28.1717 5.99719 27.5777V25.9879V24.398C5.99719 23.804 5.51564 23.3224 4.92161 23.3224H2.99862H1.07558C0.481553 23.3224 0 22.8409 0 22.2468V20.3618V18.4023C0 17.8385 0.435448 17.3703 0.997835 17.3295L2.83201 17.1966L4.70053 17.0617C5.24857 17.0221 5.67866 16.5758 5.69796 16.0267L5.85728 11.4946L6.0119 7.11068C6.03336 6.50217 5.54588 5.99719 4.93699 5.99719H3.02527H1.07558C0.481553 5.99719 0 5.51564 0 4.92161Z" fill="#70BC9C"/>
</svg>
