<svg width="30" height="29" viewBox="0 0 30 29" fill="none" xmlns="http://www.w3.org/2000/svg">
<path d="M17.8271 4.29592V2.69089V1.08585C17.8271 0.486153 18.3133 0 18.913 0H20.814H22.8007C23.3656 0 23.8361 0.433136 23.8828 0.996109L24.0094 2.52269L24.1453 4.16711C24.1876 4.67896 24.5828 5.09116 25.0924 5.15507L26.9001 5.38178L28.6343 5.59925C29.1763 5.66722 29.5834 6.12727 29.585 6.67353L29.591 8.74537L29.5966 10.6842C29.5983 11.2849 29.112 11.7729 28.5113 11.7732L24.5543 11.7753L19.8297 11.7778C19.6203 11.7779 19.4154 11.8386 19.2397 11.9525L18.7689 12.2577L18.5429 12.404C18.2239 12.6105 18.036 12.9687 18.0476 13.3486L18.0962 14.9452L18.1325 16.1364C18.1499 16.7089 18.6089 17.1694 19.1813 17.1886L23.8816 17.3468L28.5867 17.5057C29.1571 17.5249 29.6153 17.9824 29.6353 18.5528L29.7995 23.2331L29.9604 27.8029C29.9821 28.4172 29.4899 28.927 28.8752 28.927H26.9405H24.9674C24.3677 28.927 23.8816 28.4408 23.8816 27.8411V26.1978V24.6353C23.8816 24.0047 23.3462 23.5067 22.7173 23.5523L21.0225 23.6751L19.2627 23.8022C18.6583 23.8459 18.2066 24.3758 18.2592 24.9796L18.3834 26.4043L18.5002 27.7471C18.5553 28.3815 18.0552 28.927 17.4184 28.927H15.188H12.8585C12.2588 28.927 11.7726 28.4408 11.7726 27.8411V26.2745V24.6326C11.7726 24.0634 11.333 23.5907 10.7652 23.5496L8.91356 23.4154L7.02694 23.2791C6.47377 23.2392 6.03961 22.7888 6.02 22.2345L5.8594 17.6966L5.69935 13.158C5.6798 12.6037 5.24574 12.1533 4.69261 12.1132L2.83215 11.9785L1.00714 11.8458C0.439479 11.8046 0 11.332 0 10.7628V8.74537V6.7365C0 6.16381 0.444766 5.68957 1.01628 5.65287L3.19542 5.51295L5.23542 5.38196C5.86121 5.34178 6.39086 5.83851 6.39086 6.46559V8.37202V10.3504C6.39086 10.9501 6.87701 11.4363 7.47671 11.4363H9.08173H10.6868C11.2865 11.4363 11.7726 10.9501 11.7726 10.3504V8.40902V6.46763C11.7726 5.86793 12.2588 5.38178 12.8585 5.38178H14.7999H16.7413C17.341 5.38178 17.8271 4.89562 17.8271 4.29592Z" fill="#70BC9C"/>
</svg>
