<svg width="17" height="17" viewBox="0 0 17 17" fill="none" xmlns="http://www.w3.org/2000/svg">
<g clip-path="url(#clip0_643_40008)">
<path fill-rule="evenodd" clip-rule="evenodd" d="M11.3736 9.69622C11.5608 9.50872 11.666 9.25456 11.666 8.98956C11.666 8.72456 11.5608 8.47039 11.3736 8.28289L7.6029 4.51089C7.4153 4.32338 7.1609 4.21808 6.89566 4.21814C6.76433 4.21817 6.63429 4.24407 6.51296 4.29436C6.39164 4.34464 6.28141 4.41834 6.18856 4.51122C6.09572 4.60411 6.02208 4.71438 5.97185 4.83573C5.92162 4.95707 5.89578 5.08713 5.89581 5.21846C5.89584 5.34979 5.92174 5.47983 5.97203 5.60116C6.02232 5.72248 6.09601 5.83271 6.1889 5.92556L9.25223 8.98956L6.18823 12.0536C6.09268 12.1458 6.01644 12.2561 5.96398 12.378C5.91151 12.5 5.88386 12.6312 5.88265 12.764C5.88143 12.8968 5.90667 13.0285 5.95689 13.1514C6.00712 13.2743 6.08132 13.386 6.17517 13.4799C6.26901 13.5739 6.38063 13.6482 6.5035 13.6985C6.62637 13.7489 6.75804 13.7742 6.89082 13.7731C7.0236 13.772 7.15483 13.7445 7.27686 13.6922C7.39889 13.6398 7.50927 13.5637 7.60156 13.4682L11.3749 9.69622H11.3736Z" fill="white"/>
</g>
<defs>
<clipPath id="clip0_643_40008">
<rect width="16" height="16" fill="white" transform="matrix(-1 0 0 1 16.667 0.989502)"/>
</clipPath>
</defs>
</svg>
