<svg width="17" height="17" viewBox="0 0 17 17" fill="none" xmlns="http://www.w3.org/2000/svg">
<path fill-rule="evenodd" clip-rule="evenodd" d="M5.96042 9.69622C5.77315 9.50872 5.66797 9.25456 5.66797 8.98956C5.66797 8.72456 5.77315 8.47039 5.96042 8.28289L9.73109 4.51089C9.91869 4.32338 10.1731 4.21808 10.4383 4.21814C10.5697 4.21817 10.6997 4.24407 10.821 4.29436C10.9423 4.34464 11.0526 4.41834 11.1454 4.51122C11.2383 4.60411 11.3119 4.71438 11.3621 4.83573C11.4124 4.95707 11.4382 5.08713 11.4382 5.21846C11.4381 5.34979 11.4122 5.47983 11.362 5.60116C11.3117 5.72248 11.238 5.83271 11.1451 5.92556L8.08176 8.98956L11.1458 12.0536C11.2413 12.1458 11.3175 12.2561 11.37 12.378C11.4225 12.5 11.4501 12.6312 11.4513 12.764C11.4526 12.8968 11.4273 13.0285 11.3771 13.1514C11.3269 13.2743 11.2527 13.386 11.1588 13.4799C11.065 13.5739 10.9534 13.6482 10.8305 13.6985C10.7076 13.7489 10.5759 13.7742 10.4432 13.7731C10.3104 13.772 10.1792 13.7445 10.0571 13.6922C9.93509 13.6398 9.82471 13.5637 9.73242 13.4682L5.95909 9.69622H5.96042Z" fill="white"/>
</svg>
