<svg width="56" height="65" viewBox="0 0 56 65" fill="none" xmlns="http://www.w3.org/2000/svg">
<path d="M53.052 32.4202V29.4729H50.1047V26.5256H47.1574V23.5784H41.2628V17.6838H44.2101V14.7365H38.3155V17.6838H35.3683V11.7892H41.2628V8.84188H44.2101V5.89459H47.1574V2.94729H50.1047V20.6311H53.052V0L44.2101 0V2.94729L41.2628 2.94729V5.89459L38.3155 5.89459V8.84188L14.7372 8.84188V5.89459H11.7899V2.94729H8.84261V0L0.000732422 0L0.000732422 14.7365H2.94803L2.94803 2.94729L5.89532 2.94729V5.89459L8.84261 5.89459V8.84188H11.7899V11.7892L17.6845 11.7892V17.6838H14.7372L14.7372 14.7365H8.84261L8.84261 17.6838H11.7899V23.5784H8.84261V26.5256H11.7899V29.4729H14.7372V32.4202H17.6845V35.3675H20.6318V44.2094H14.7372V47.1567H11.7899L11.7899 53.0513H14.7372V58.9459H17.6845V61.8932H20.6318V64.8405H32.421L32.421 61.8932H35.3683V58.9459H38.3155V53.0513H41.2628V50.104H44.2101V47.1567H47.1574V44.2094H50.1047V41.2621H53.052V38.3148H55.9993V32.4202H53.052ZM44.2101 35.3675H41.2628V38.3148H38.3155V41.2621H35.3683V44.2094H32.421V35.3675H35.3683V32.4202H44.2101V35.3675ZM29.4737 58.9459V61.8932H23.5791V58.9459H20.6318V53.0513H32.421V58.9459H29.4737Z" fill="#9FE7C7"/>
</svg>
