<svg width="19" height="22" viewBox="0 0 19 22" fill="none" xmlns="http://www.w3.org/2000/svg">
<path d="M17.2351 10.887V9.92952H16.2776V8.97202L15.3201 8.97202V8.01452H13.405V6.09951H14.3625V5.14201H12.4475V6.09951H11.49V4.18451L13.405 4.18451V3.227H14.3625V2.2695H15.3201V1.312H16.2776V7.05701H17.2351V0.354492L14.3625 0.354492V1.312H13.405V2.2695H12.4475V3.227L4.78752 3.227V2.2695H3.83001V1.312L2.87251 1.312V0.354492L0 0.354492L0 5.14201H0.957503L0.957503 1.312H1.91501V2.2695H2.87251V3.227H3.83001V4.18451H5.74502V6.09951H4.78752V5.14201H2.87251V6.09951H3.83001V8.01452H2.87251V8.97202H3.83001V9.92952H4.78752V10.887H5.74502V11.8445H6.70252V14.717H4.78752V15.6745H3.83001V17.5896H4.78752V19.5046H5.74502V20.4621H6.70252V21.4196H10.5325V20.4621H11.49V19.5046H12.4475V17.5896H13.405V16.632H14.3625L14.3625 15.6745H15.3201V14.717L16.2776 14.717V13.7595H17.2351V12.802H18.1926V10.887H17.2351ZM14.3625 11.8445H13.405V12.802H12.4475V13.7595H11.49V14.717H10.5325V11.8445H11.49V10.887H14.3625V11.8445ZM9.57503 19.5046V20.4621H7.66003V19.5046H6.70252V17.5896H10.5325V19.5046H9.57503Z" fill="#16237F"/>
</svg>
