<svg width="318" height="65" viewBox="0 0 318 65" fill="none" xmlns="http://www.w3.org/2000/svg">
<path fill-rule="evenodd" clip-rule="evenodd" d="M8 1C8 0.447715 7.55228 0 7 0H1C0.447715 0 0 0.447715 0 0.999999V54.5C0 55.0523 0.447715 55.5 1 55.5H4C4.55228 55.5 5 55.9477 5 56.5V60.5H1C0.447715 60.5 0 60.9477 0 61.5V64C0 64.5523 0.447715 65 1 65H4C4.55228 65 5 64.5523 5 64V60.5H10V64C10 64.5523 10.4477 65 11 65H317C317.552 65 318 64.5523 318 64V59.5C318 58.9477 317.552 58.5 317 58.5H315C314.448 58.5 314 58.0523 314 57.5V53C314 52.4477 314.448 52 315 52H317C317.552 52 318 51.5523 318 51V14C318 13.4477 317.552 13 317 13H315.5C314.948 13 314.5 13.4477 314.5 14V16.5C314.5 17.0523 314.052 17.5 313.5 17.5H309C308.448 17.5 308 17.0523 308 16.5V12C308 11.4477 308.448 11 309 11H312.5C313.052 11 313.5 10.5523 313.5 10V7.50003C313.5 6.94774 313.052 6.50002 312.5 6.50003L308 6.50004C307.448 6.50004 307 6.05233 307 5.50004V1.00005C307 0.447761 306.552 4.599e-05 306 4.5903e-05L15.5 1.57472e-07C14.9477 7.05025e-08 14.5 0.447715 14.5 1V5.5C14.5 6.05228 14.0523 6.5 13.5 6.5H9C8.44772 6.5 8 6.05228 8 5.5V1ZM10 60.5V56.5C10 55.9477 10.4477 55.5 11 55.5H14C14.5523 55.5 15 55.9477 15 56.5V59.5C15 60.0523 14.5523 60.5 14 60.5H10Z" fill="#9FE7C7"/>
</svg>
