<svg width="209" height="229" viewBox="0 0 209 229" fill="none" xmlns="http://www.w3.org/2000/svg">
<path fill-rule="evenodd" clip-rule="evenodd" d="M208.076 9.24725L199.689 9.24722V18.4945H191.302V9.24722L199.689 9.24725V0H191.301V9.24725H182.913V0H8.77234V9.24725H0.384766V18.4946H8.77234V27.7419H0.384766V210.485H8.77234V219.732L17.1591 219.732V228.98L208.077 228.98V207.403H199.693V198.156H208.077V3.24249e-05L208.076 0V9.24725ZM0.384766 228.98V219.732L8.77148 219.732V228.98L0.384766 228.98ZM199.689 27.7419H208.076V18.4946H199.689V27.7419ZM199.691 207.403H191.304V216.65H199.691V207.403Z" fill="#0F1C79"/>
</svg>
