<svg width="318" height="65" viewBox="0 0 318 65" fill="none" xmlns="http://www.w3.org/2000/svg">
<mask id="path-1-inside-1_82_2772" fill="white">
<path fill-rule="evenodd" clip-rule="evenodd" d="M8 1C8 0.447715 7.55228 0 7 0H1C0.447715 0 0 0.447715 0 0.999999V54.5C0 55.0523 0.447715 55.5 1 55.5H4C4.55228 55.5 5 55.9477 5 56.5V60.5H1C0.447715 60.5 0 60.9477 0 61.5V64C0 64.5523 0.447715 65 1 65H4C4.55228 65 5 64.5523 5 64V60.5H10V64C10 64.5523 10.4477 65 11 65H317C317.552 65 318 64.5523 318 64V59.5C318 58.9477 317.552 58.5 317 58.5H315C314.448 58.5 314 58.0523 314 57.5V53C314 52.4477 314.448 52 315 52H317C317.552 52 318 51.5523 318 51V14C318 13.4477 317.552 13 317 13H314.5C313.948 13 313.5 13.4477 313.5 14V15.5C313.5 16.0523 313.052 16.5 312.5 16.5H308C307.448 16.5 307 16.0523 307 15.5V11C307 10.4477 307.448 10 308 10H312.5C313.052 10 313.5 9.55231 313.5 9.00002V7.50003C313.5 6.94774 313.052 6.50002 312.5 6.50003L308 6.50004C307.448 6.50004 307 6.05233 307 5.50004V1.00005C307 0.447761 306.552 4.599e-05 306 4.5903e-05L15.5 1.57472e-07C14.9477 7.05025e-08 14.5 0.447715 14.5 1V5.5C14.5 6.05228 14.0523 6.5 13.5 6.5H9C8.44772 6.5 8 6.05228 8 5.5V1ZM10 60.5V56.5C10 55.9477 10.4477 55.5 11 55.5H14C14.5523 55.5 15 55.9477 15 56.5V59.5C15 60.0523 14.5523 60.5 14 60.5H10Z"/>
</mask>
<path fill-rule="evenodd" clip-rule="evenodd" d="M8 1C8 0.447715 7.55228 0 7 0H1C0.447715 0 0 0.447715 0 0.999999V54.5C0 55.0523 0.447715 55.5 1 55.5H4C4.55228 55.5 5 55.9477 5 56.5V60.5H1C0.447715 60.5 0 60.9477 0 61.5V64C0 64.5523 0.447715 65 1 65H4C4.55228 65 5 64.5523 5 64V60.5H10V64C10 64.5523 10.4477 65 11 65H317C317.552 65 318 64.5523 318 64V59.5C318 58.9477 317.552 58.5 317 58.5H315C314.448 58.5 314 58.0523 314 57.5V53C314 52.4477 314.448 52 315 52H317C317.552 52 318 51.5523 318 51V14C318 13.4477 317.552 13 317 13H314.5C313.948 13 313.5 13.4477 313.5 14V15.5C313.5 16.0523 313.052 16.5 312.5 16.5H308C307.448 16.5 307 16.0523 307 15.5V11C307 10.4477 307.448 10 308 10H312.5C313.052 10 313.5 9.55231 313.5 9.00002V7.50003C313.5 6.94774 313.052 6.50002 312.5 6.50003L308 6.50004C307.448 6.50004 307 6.05233 307 5.50004V1.00005C307 0.447761 306.552 4.599e-05 306 4.5903e-05L15.5 1.57472e-07C14.9477 7.05025e-08 14.5 0.447715 14.5 1V5.5C14.5 6.05228 14.0523 6.5 13.5 6.5H9C8.44772 6.5 8 6.05228 8 5.5V1ZM10 60.5V56.5C10 55.9477 10.4477 55.5 11 55.5H14C14.5523 55.5 15 55.9477 15 56.5V59.5C15 60.0523 14.5523 60.5 14 60.5H10Z" fill="white" fill-opacity="0.25"/>
<path d="M308 6.50004V5.50004V6.50004ZM1 1H7V-1H1V1ZM1 54.5V0.999999H-1V54.5H1ZM4 54.5H1V56.5H4V54.5ZM6 60.5V56.5H4V60.5H6ZM5 59.5H1V61.5H5V59.5ZM-1 61.5V64H1V61.5H-1ZM1 66H4V64H1V66ZM6 64V60.5H4V64H6ZM10 59.5H5V61.5H10V59.5ZM11 64V60.5H9V64H11ZM317 64H11V66H317V64ZM317 59.5V64H319V59.5H317ZM315 59.5H317V57.5H315V59.5ZM313 53V57.5H315V53H313ZM317 51H315V53H317V51ZM317 14V51H319V14H317ZM314.5 14H317V12H314.5V14ZM314.5 15.5V14H312.5V15.5H314.5ZM308 17.5H312.5V15.5H308V17.5ZM306 11V15.5H308V11H306ZM312.5 9.00002H308V11H312.5V9.00002ZM312.5 7.50003V9.00002H314.5V7.50003H312.5ZM308 7.50004L312.5 7.50003V5.50003L308 5.50004V7.50004ZM306 1.00005V5.50004H308V1.00005H306ZM15.5 1L306 1.00005V-0.999954L15.5 -1V1ZM15.5 5.5V1H13.5V5.5H15.5ZM9 7.5H13.5V5.5H9V7.5ZM7 1V5.5H9V1H7ZM11 60.5V56.5H9V60.5H11ZM11 56.5H14V54.5H11V56.5ZM14 56.5V59.5H16V56.5H14ZM14 59.5H10V61.5H14V59.5ZM14 59.5V61.5C15.1046 61.5 16 60.6046 16 59.5H14ZM14 56.5H16C16 55.3954 15.1046 54.5 14 54.5V56.5ZM11 56.5V54.5C9.89543 54.5 9 55.3954 9 56.5H11ZM9 5.5H7C7 6.60457 7.89543 7.5 9 7.5V5.5ZM13.5 5.5V7.5C14.6046 7.5 15.5 6.60457 15.5 5.5H13.5ZM308 5.50004H306C306 6.60461 306.895 7.50005 308 7.50004V5.50004ZM314.5 7.50003C314.5 6.39545 313.605 5.50002 312.5 5.50003V7.50003H314.5ZM312.5 11C313.605 11 314.5 10.1046 314.5 9.00002H312.5V11ZM308 11V9.00002C306.895 9.00002 306 9.89545 306 11H308ZM308 15.5H306C306 16.6046 306.895 17.5 308 17.5V15.5ZM312.5 15.5V17.5C313.605 17.5 314.5 16.6046 314.5 15.5H312.5ZM314.5 12C313.395 12 312.5 12.8955 312.5 14H314.5V12ZM319 14C319 12.8955 318.105 12 317 12V14H319ZM317 53C318.105 53 319 52.1046 319 51H317V53ZM315 53V51C313.895 51 313 51.8954 313 53H315ZM317 66C318.105 66 319 65.1046 319 64H317V66ZM9 64C9 65.1046 9.89541 66 11 66V64H11H9ZM4 66C5.10457 66 6 65.1046 6 64H4V66ZM-1 64C-1 65.1046 -0.104569 66 1 66V64H-1ZM4 56.5H6C6 55.3954 5.10457 54.5 4 54.5V56.5ZM-1 54.5C-1 55.6046 -0.10457 56.5 1 56.5V54.5H1H-1ZM315 57.5H313C313 58.6046 313.895 59.5 315 59.5V57.5ZM15.5 -1C14.3954 -1 13.5 -0.10457 13.5 1H15.5V1V-1ZM7 1H9C9 -0.104569 8.10457 -1 7 -1V1ZM1 59.5C-0.10457 59.5 -1 60.3954 -1 61.5H1H1V59.5ZM319 59.5C319 58.3954 318.105 57.5 317 57.5V59.5H319ZM308 1.00005C308 -0.104524 307.105 -0.999954 306 -0.999954V1.00005H308ZM1 -1C-0.104569 -1 -1 -0.104571 -1 0.999999H1V1V-1Z" fill="white" mask="url(#path-1-inside-1_82_2772)"/>
</svg>
