<svg width="318" height="55" viewBox="0 0 318 55" fill="none" xmlns="http://www.w3.org/2000/svg">
<mask id="path-1-inside-1_230_289" fill="white">
<path fill-rule="evenodd" clip-rule="evenodd" d="M8 1C8 0.447715 7.55228 0 7 0H1C0.447715 0 0 0.447714 0 0.999999V45.9615C0 46.5138 0.447715 46.9615 1 46.9615H4C4.55228 46.9615 5 47.4093 5 47.9615V51.1923H1C0.447715 51.1923 0 51.64 0 52.1923V54C0 54.5523 0.447715 55 1 55H4C4.55228 55 5 54.5523 5 54V51.1923H10V54C10 54.5523 10.4477 55 11 55H317C317.552 55 318 54.5523 318 54V50.5C318 49.9477 317.552 49.5 317 49.5H315C314.448 49.5 314 49.0523 314 48.5V45C314 44.4477 314.448 44 315 44H317C317.552 44 318 43.5523 318 43V12C318 11.4477 317.552 11 317 11H314.5C313.948 11 313.5 11.4477 313.5 12V12.9616C313.5 13.5138 313.052 13.9616 312.5 13.9616H308C307.448 13.9616 307 13.5138 307 12.9616V9.46156C307 8.90927 307.448 8.46156 308 8.46156H312.5C313.052 8.46156 313.5 8.01384 313.5 7.46156V6.50002C313.5 5.94774 313.052 5.50002 312.5 5.50002L308 5.50004C307.448 5.50004 307 5.05233 307 4.50004V1.00005C307 0.447761 306.552 4.599e-05 306 4.5903e-05L15.5 1.57472e-07C14.9477 7.05025e-08 14.5 0.447715 14.5 1V4.5C14.5 5.05228 14.0523 5.5 13.5 5.5H9C8.44772 5.5 8 5.05228 8 4.5V1ZM10 51.1923V47.9615C10 47.4093 10.4477 46.9615 11 46.9615H14C14.5523 46.9615 15 47.4093 15 47.9615V50.1923C15 50.7446 14.5523 51.1923 14 51.1923H10Z"/>
</mask>
<path d="M308 5.50004V6.50004V5.50004ZM312.5 5.50002V4.50002V5.50002ZM1 1H7V-1H1V1ZM1 45.9615V0.999999H-1V45.9615H1ZM4 45.9615H1V47.9615H4V45.9615ZM6 51.1923V47.9615H4V51.1923H6ZM5 50.1923H1V52.1923H5V50.1923ZM-1 52.1923V54H1V52.1923H-1ZM1 56H4V54H1V56ZM6 54V51.1923H4V54H6ZM10 50.1923H5V52.1923H10V50.1923ZM11 54V51.1923H9V54H11ZM317 54H11V56H317V54ZM317 50.5V54H319V50.5H317ZM315 50.5H317V48.5H315V50.5ZM313 45V48.5H315V45H313ZM317 43H315V45H317V43ZM317 12V43H319V12H317ZM314.5 12H317V10H314.5V12ZM314.5 12.9616V12H312.5V12.9616H314.5ZM308 14.9616H312.5V12.9616H308V14.9616ZM306 9.46156V12.9616H308V9.46156H306ZM312.5 7.46156H308V9.46156H312.5V7.46156ZM312.5 6.50002V7.46156H314.5V6.50002H312.5ZM308 6.50004L312.5 6.50002V4.50002L308 4.50004V6.50004ZM306 1.00005V4.50004H308V1.00005H306ZM15.5 1L306 1.00005V-0.999954L15.5 -1V1ZM15.5 4.5V1H13.5V4.5H15.5ZM9 6.5H13.5V4.5H9V6.5ZM7 1V4.5H9V1H7ZM11 51.1923V47.9615H9V51.1923H11ZM11 47.9615H14V45.9615H11V47.9615ZM14 47.9615V50.1923H16V47.9615H14ZM14 50.1923H10V52.1923H14V50.1923ZM14 50.1923V52.1923C15.1046 52.1923 16 51.2969 16 50.1923H14ZM14 47.9615H16C16 46.857 15.1046 45.9615 14 45.9615V47.9615ZM11 47.9615V45.9615C9.89543 45.9615 9 46.857 9 47.9615H11ZM9 4.5H7C7 5.60457 7.89543 6.5 9 6.5V4.5ZM13.5 4.5V6.5C14.6046 6.5 15.5 5.60457 15.5 4.5H13.5ZM308 4.50004V4.50004H306C306 5.60462 306.895 6.50005 308 6.50004V4.50004ZM314.5 6.50002C314.5 5.39545 313.605 4.50002 312.5 4.50002V6.50002V6.50002H314.5ZM312.5 9.46156C313.605 9.46156 314.5 8.56613 314.5 7.46156H312.5V7.46156V9.46156ZM308 9.46156V7.46156C306.895 7.46156 306 8.35699 306 9.46156H308ZM308 12.9616H306C306 14.0661 306.895 14.9616 308 14.9616V12.9616ZM312.5 12.9616V14.9616C313.605 14.9616 314.5 14.0661 314.5 12.9616H312.5ZM314.5 10C313.395 10 312.5 10.8954 312.5 12H314.5V12V10ZM319 12C319 10.8954 318.105 10 317 10V12H319ZM317 45C318.105 45 319 44.1046 319 43H317V45ZM315 45V43C313.895 43 313 43.8954 313 45H315ZM317 56C318.105 56 319 55.1046 319 54H317V56ZM9 54C9 55.1046 9.89541 56 11 56V54H11H9ZM4 56C5.10457 56 6 55.1046 6 54H4V56ZM-1 54C-1 55.1046 -0.104569 56 1 56V54H-1ZM4 47.9615H6C6 46.857 5.10457 45.9615 4 45.9615V47.9615ZM-1 45.9615C-1 47.0661 -0.10457 47.9615 1 47.9615V45.9615H1H-1ZM315 48.5H313C313 49.6046 313.895 50.5 315 50.5V48.5ZM15.5 -1C14.3954 -1 13.5 -0.10457 13.5 1H15.5V1V-1ZM7 1H9C9 -0.104569 8.10457 -1 7 -1V1ZM1 50.1923C-0.10457 50.1923 -1 51.0877 -1 52.1923H1H1V50.1923ZM319 50.5C319 49.3954 318.105 48.5 317 48.5V50.5H319ZM308 1.00005C308 -0.104523 307.105 -0.999954 306 -0.999954V1.00005V1.00005H308ZM1 -1C-0.104568 -1 -1 -0.104572 -1 0.999999H1V1V-1Z" fill="white" mask="url(#path-1-inside-1_230_289)"/>
</svg>
