<svg width="270" height="55" viewBox="0 0 270 55" fill="none" xmlns="http://www.w3.org/2000/svg">
<mask id="path-1-inside-1_86_5883" fill="white">
<path fill-rule="evenodd" clip-rule="evenodd" d="M269.079 0H0.00244141V55H4.23441L4.23441 51.1923H8.46518V55H269.079V49.5H265.697V44H269.079V11.0001H265.274V5.50006L259.774 5.50008V8.39233e-05H265.274L265.274 4.21981e-05L269.079 0ZM8.46518 51.1923L8.46518 46.9616H12.6959V51.1923L8.46518 51.1923ZM259.774 11.0001H265.274V16.5001H259.774V11.0001ZM12.2729 2.28882e-05H6.77287V5.50002H12.2729V2.28882e-05ZM4.23441 46.9616L4.23441 51.1923H0.00363599L0.00363618 46.9616H4.23441Z"/>
</mask>
<path fill-rule="evenodd" clip-rule="evenodd" d="M269.079 0H0.00244141V55H4.23441L4.23441 51.1923H8.46518V55H269.079V49.5H265.697V44H269.079V11.0001H265.274V5.50006L259.774 5.50008V8.39233e-05H265.274L265.274 4.21981e-05L269.079 0ZM8.46518 51.1923L8.46518 46.9616H12.6959V51.1923L8.46518 51.1923ZM259.774 11.0001H265.274V16.5001H259.774V11.0001ZM12.2729 2.28882e-05H6.77287V5.50002H12.2729V2.28882e-05ZM4.23441 46.9616L4.23441 51.1923H0.00363599L0.00363618 46.9616H4.23441Z" fill="white" fill-opacity="0.25"/>
<path d="M0.00244141 0V-0.846154H-0.843712V0H0.00244141ZM269.079 0V0.846154V-0.846154V0ZM0.00244141 55H-0.843712V55.8462H0.00244141V55ZM4.23441 55V55.8462H5.08056V55H4.23441ZM4.23441 51.1923V50.3462H3.38826V51.1923H4.23441ZM8.46518 55H7.61903V55.8462H8.46518V55ZM269.079 55V55.8462H269.926V55H269.079ZM269.079 49.5H269.926V48.6539H269.079V49.5ZM265.697 49.5H264.851V50.3462H265.697V49.5ZM265.697 44V43.1539H264.851V44H265.697ZM269.079 44V44.8462H269.926V44H269.079ZM269.079 11.0001H269.926V10.1539H269.079V11.0001ZM265.274 11.0001H264.428V11.8462H265.274V11.0001ZM265.274 5.50006H266.12V4.6539L265.274 4.65391V5.50006ZM259.774 5.50008H258.928V6.34624L259.774 6.34624V5.50008ZM259.774 8.39233e-05V-0.84607H258.928V8.39233e-05H259.774ZM265.274 8.39233e-05V0.846238H265.703L265.957 0.499607L265.274 8.39233e-05ZM265.274 4.21981e-05V-0.846112L264.844 -0.846107L264.591 -0.499481L265.274 4.21981e-05ZM8.46518 46.9616V46.1154H7.61902L7.61902 46.9616H8.46518ZM12.6959 46.9616H13.5421V46.1154H12.6959V46.9616ZM12.6959 51.1923L12.6959 52.0385H13.5421V51.1923H12.6959ZM265.274 11.0001H266.12V10.1539H265.274V11.0001ZM259.774 11.0001V10.1539H258.928V11.0001H259.774ZM265.274 16.5001V17.3462H266.12V16.5001H265.274ZM259.774 16.5001H258.928V17.3462H259.774V16.5001ZM6.77287 2.28882e-05V-0.846131H5.92671V2.28882e-05H6.77287ZM12.2729 2.28882e-05H13.119V-0.846131H12.2729V2.28882e-05ZM6.77287 5.50002H5.92671V6.34618H6.77287V5.50002ZM12.2729 5.50002V6.34618H13.119V5.50002H12.2729ZM4.23441 51.1923V52.0385H5.08056V51.1923H4.23441ZM4.23441 46.9616H5.08056V46.1154H4.23441V46.9616ZM0.00363599 51.1923H-0.842518L-0.842518 52.0385H0.00363599V51.1923ZM0.00363618 46.9616V46.1154H-0.842518L-0.842518 46.9616H0.00363618ZM0.00244141 0.846154H269.079V-0.846154H0.00244141V0.846154ZM0.848595 55V0H-0.843712V55H0.848595ZM4.23441 54.1538H0.00244141V55.8462H4.23441V54.1538ZM3.38826 51.1923L3.38826 55H5.08056L5.08056 51.1923H3.38826ZM8.46518 50.3462H4.23441V52.0385H8.46518V50.3462ZM9.31133 55V51.1923H7.61903V55H9.31133ZM269.079 54.1538H8.46518V55.8462H269.079V54.1538ZM268.233 49.5V55H269.926V49.5H268.233ZM265.697 50.3462H269.079V48.6539H265.697V50.3462ZM264.851 44V49.5H266.543V44H264.851ZM269.079 43.1539H265.697V44.8462H269.079V43.1539ZM268.233 11.0001V44H269.926V11.0001H268.233ZM265.274 11.8462H269.079V10.1539H265.274V11.8462ZM264.428 5.50006V11.0001H266.12V5.50006H264.428ZM259.774 6.34624L265.274 6.34621V4.65391L259.774 4.65393V6.34624ZM258.928 8.39233e-05V5.50008H260.62V8.39233e-05H258.928ZM265.274 -0.84607H259.774V0.846238H265.274V-0.84607ZM264.591 -0.499481L264.591 -0.499439L265.957 0.499607L265.957 0.499565L264.591 -0.499481ZM269.079 -0.846154L265.274 -0.846112V0.846196L269.079 0.846154V-0.846154ZM9.31133 51.1923L9.31133 46.9616H7.61902L7.61903 51.1923H9.31133ZM8.46518 47.8077H12.6959V46.1154H8.46518V47.8077ZM11.8498 46.9616V51.1923H13.5421V46.9616H11.8498ZM12.6959 50.3462L8.46518 50.3462L8.46518 52.0385L12.6959 52.0385L12.6959 50.3462ZM265.274 10.1539H259.774V11.8462H265.274V10.1539ZM266.12 16.5001V11.0001H264.428V16.5001H266.12ZM259.774 17.3462H265.274V15.6539H259.774V17.3462ZM258.928 11.0001V16.5001H260.62V11.0001H258.928ZM6.77287 0.846177H12.2729V-0.846131H6.77287V0.846177ZM7.61902 5.50002V2.28882e-05H5.92671V5.50002H7.61902ZM12.2729 4.65387H6.77287V6.34618H12.2729V4.65387ZM11.4267 2.28882e-05V5.50002H13.119V2.28882e-05H11.4267ZM5.08056 51.1923L5.08056 46.9616H3.38825L3.38825 51.1923H5.08056ZM0.00363599 52.0385H4.23441V50.3462H0.00363599V52.0385ZM-0.842518 46.9616L-0.842518 51.1923H0.84979L0.84979 46.9616H-0.842518ZM4.23441 46.1154H0.00363618V47.8077H4.23441V46.1154Z" fill="white" mask="url(#path-1-inside-1_86_5883)"/>
</svg>
