<svg width="330" height="187" viewBox="0 0 330 187" fill="none" xmlns="http://www.w3.org/2000/svg">
<mask id="path-1-inside-1_82_5024" fill="white">
<path fill-rule="evenodd" clip-rule="evenodd" d="M290.31 2.56795C290.31 3.9862 291.46 5.13591 292.878 5.13591H301.069C302.487 5.13591 303.637 3.9862 303.637 2.56795C303.637 1.14971 304.786 0 306.205 0H317.169C318.826 0 320.169 1.34315 320.169 3V3.55192C320.169 5.20878 321.512 6.55192 323.169 6.55192H327C328.657 6.55192 330 7.89507 330 9.55192V12.1041C330 13.761 328.657 15.1041 327 15.1041H319.673C318.016 15.1041 316.673 16.4473 316.673 18.1041V19.656C316.673 21.3129 318.016 22.656 319.673 22.656H327C328.657 22.656 330 23.9992 330 25.656V160.387C330 160.388 329.999 160.389 329.999 160.389C329.998 160.389 329.997 160.389 329.997 160.39V161.108C329.997 161.505 329.675 161.827 329.278 161.827H319.673C318.016 161.827 316.673 163.17 316.673 164.827V166.379C316.673 168.036 318.016 169.379 319.673 169.379H327C328.657 169.379 330 170.722 330 172.379V175.491C330 175.492 329.999 175.492 329.999 175.492C329.998 175.492 329.997 175.493 329.997 175.494V183.043C329.997 183.044 329.998 183.044 329.999 183.044C329.999 183.044 330 183.045 330 183.046V185.022C330 186.114 329.115 187 328.022 187L29.6511 187C27.9943 187 26.6511 185.657 26.6511 184V182.448C26.6511 180.791 25.308 179.448 23.6511 179.448H16.3242C14.6674 179.448 13.3242 180.791 13.3242 182.448V184C13.3242 185.657 11.9811 187 10.3242 187L3 187C1.34315 187 0 185.657 0 184V182.244C0 180.587 1.34315 179.244 3 179.244H8.25271C9.90956 179.244 11.2527 177.9 11.2527 176.244V174.692C11.2527 173.035 9.90956 171.692 8.2527 171.692H3C1.34314 171.692 0 170.349 0 168.692V25.408C0 23.7511 1.34315 22.408 3 22.408H7.74489C9.40175 22.408 10.7449 21.0648 10.7449 19.408V17.8561C10.7449 16.1992 9.40175 14.8561 7.74489 14.8561H3C1.34314 14.8561 0 13.5129 0 11.8561V9.50493C0 7.84808 1.34315 6.50493 3 6.50493H8.42458C10.0814 6.50493 11.4246 5.16178 11.4246 3.50493V3C11.4246 1.34315 12.7677 0 14.4246 0H287.742C289.16 0 290.31 1.14971 290.31 2.56795ZM316.668 172.379C316.668 170.722 315.325 169.379 313.668 169.379H306.341C304.684 169.379 303.341 170.722 303.341 172.379V173.93C303.341 175.587 304.684 176.93 306.341 176.93H313.668C315.325 176.93 316.668 175.587 316.668 173.93V172.379Z"/>
</mask>
<path d="M3 187L3 186L3 187ZM10.3242 187L10.3242 188L10.3242 187ZM29.6511 187V188V187ZM328.022 187V186V187ZM301.069 4.13591H292.878V6.13591H301.069V4.13591ZM306.205 1H317.169V-1H306.205V1ZM319.169 3V3.55192H321.169V3H319.169ZM323.169 7.55192H327V5.55192H323.169V7.55192ZM329 9.55192V12.1041H331V9.55192H329ZM327 14.1041H319.673V16.1041H327V14.1041ZM315.673 18.1041V19.656H317.673V18.1041H315.673ZM319.673 23.656H327V21.656H319.673V23.656ZM329 25.656V160.387H331V25.656H329ZM328.997 160.39V161.108H330.997V160.39H328.997ZM329.278 160.827H319.673V162.827H329.278V160.827ZM315.673 164.827V166.379H317.673V164.827H315.673ZM319.673 170.379H327V168.379H319.673V170.379ZM329 172.379V175.491H331V172.379H329ZM328.997 175.494V183.043H330.997V175.494H328.997ZM329 183.046V185.022H331V183.046H329ZM328.022 186L29.6511 186V188L328.022 188V186ZM27.6511 184V182.448H25.6511V184H27.6511ZM23.6511 178.448H16.3242V180.448H23.6511V178.448ZM12.3242 182.448V184H14.3242V182.448H12.3242ZM10.3242 186L3 186L3.00001 188L10.3242 188L10.3242 186ZM1 184V182.244H-1V184H1ZM3 180.244H8.25271V178.244H3V180.244ZM12.2527 176.244V174.692H10.2527V176.244H12.2527ZM8.2527 170.692H3V172.692H8.2527V170.692ZM1 168.692V25.408H-1V168.692H1ZM3 23.408H7.74489V21.408H3V23.408ZM11.7449 19.408V17.8561H9.74489V19.408H11.7449ZM7.74489 13.8561H3V15.8561H7.74489V13.8561ZM1 11.8561V9.50493H-1V11.8561H1ZM3 7.50493H8.42458V5.50493H3V7.50493ZM12.4246 3.50493V3H10.4246V3.50493H12.4246ZM14.4246 1H287.742V-1H14.4246V1ZM306.341 170.379H313.668V168.379H306.341V170.379ZM304.341 173.93V172.379H302.341V173.93H304.341ZM313.668 175.93H306.341V177.93H313.668V175.93ZM315.668 172.379V173.93H317.668V172.379H315.668ZM313.668 177.93C315.877 177.93 317.668 176.14 317.668 173.93H315.668C315.668 175.035 314.773 175.93 313.668 175.93V177.93ZM302.341 173.93C302.341 176.14 304.132 177.93 306.341 177.93V175.93C305.236 175.93 304.341 175.035 304.341 173.93H302.341ZM313.668 170.379C314.773 170.379 315.668 171.274 315.668 172.379H317.668C317.668 170.169 315.877 168.379 313.668 168.379V170.379ZM306.341 168.379C304.132 168.379 302.341 170.169 302.341 172.379H304.341C304.341 171.274 305.236 170.379 306.341 170.379V168.379ZM287.742 1C288.608 1 289.31 1.702 289.31 2.56795H291.31C291.31 0.59742 289.712 -1 287.742 -1V1ZM12.4246 3C12.4246 1.89543 13.32 1 14.4246 1V-1C12.2154 -1 10.4246 0.790861 10.4246 3H12.4246ZM8.42458 7.50493C10.6337 7.50493 12.4246 5.71407 12.4246 3.50493H10.4246C10.4246 4.6095 9.52915 5.50493 8.42458 5.50493V7.50493ZM1 9.50493C1 8.40036 1.89543 7.50493 3 7.50493V5.50493C0.79086 5.50493 -1 7.29579 -1 9.50493H1ZM3 13.8561C1.89543 13.8561 1 12.9606 1 11.8561H-1C-1 14.0652 0.790857 15.8561 3 15.8561V13.8561ZM11.7449 17.8561C11.7449 15.6469 9.95403 13.8561 7.74489 13.8561V15.8561C8.84946 15.8561 9.74489 16.7515 9.74489 17.8561H11.7449ZM7.74489 23.408C9.95403 23.408 11.7449 21.6171 11.7449 19.408H9.74489C9.74489 20.5125 8.84946 21.408 7.74489 21.408V23.408ZM1 25.408C1 24.3034 1.89543 23.408 3 23.408V21.408C0.790863 21.408 -1 23.1988 -1 25.408H1ZM3 170.692C1.89543 170.692 1 169.796 1 168.692H-1C-1 170.901 0.790856 172.692 3 172.692V170.692ZM12.2527 174.692C12.2527 172.483 10.4618 170.692 8.2527 170.692V172.692C9.35727 172.692 10.2527 173.587 10.2527 174.692H12.2527ZM8.25271 180.244C10.4618 180.244 12.2527 178.453 12.2527 176.244H10.2527C10.2527 177.348 9.35728 178.244 8.25271 178.244V180.244ZM1 182.244C1 181.139 1.89543 180.244 3 180.244V178.244C0.790861 178.244 -1 180.034 -1 182.244H1ZM3 186C1.89543 186 1 185.105 1 184H-1C-1 186.209 0.790865 188 3.00001 188L3 186ZM12.3242 184C12.3242 185.105 11.4288 186 10.3242 186L10.3242 188C12.5334 188 14.3242 186.209 14.3242 184H12.3242ZM16.3242 178.448C14.1151 178.448 12.3242 180.239 12.3242 182.448H14.3242C14.3242 181.344 15.2196 180.448 16.3242 180.448V178.448ZM27.6511 182.448C27.6511 180.239 25.8603 178.448 23.6511 178.448V180.448C24.7557 180.448 25.6511 181.344 25.6511 182.448H27.6511ZM29.6511 186C28.5466 186 27.6511 185.105 27.6511 184H25.6511C25.6511 186.209 27.442 188 29.6511 188V186ZM329 185.022C329 185.562 328.562 186 328.022 186V188C329.667 188 331 186.667 331 185.022H329ZM329.999 184.044C329.447 184.044 329 183.597 329 183.046H331C331 182.493 330.552 182.044 329.999 182.044V184.044ZM328.997 183.043C328.997 183.596 329.446 184.044 329.999 184.044V182.044C330.55 182.044 330.997 182.491 330.997 183.043H328.997ZM329.999 174.492C329.446 174.492 328.997 174.941 328.997 175.494H330.997C330.997 176.045 330.55 176.492 329.999 176.492V174.492ZM329 175.491C329 174.94 329.447 174.492 329.999 174.492V176.492C330.552 176.492 331 176.044 331 175.491H329ZM327 170.379C328.105 170.379 329 171.275 329 172.379H331C331 170.17 329.209 168.379 327 168.379V170.379ZM315.673 166.379C315.673 168.588 317.464 170.379 319.673 170.379V168.379C318.568 168.379 317.673 167.484 317.673 166.379H315.673ZM319.673 160.827C317.464 160.827 315.673 162.618 315.673 164.827H317.673C317.673 163.723 318.568 162.827 319.673 162.827V160.827ZM328.997 161.108C328.997 160.953 329.123 160.827 329.278 160.827V162.827C330.228 162.827 330.997 162.058 330.997 161.108H328.997ZM329.999 159.389C329.446 159.389 328.997 159.837 328.997 160.39H330.997C330.997 160.942 330.55 161.389 329.999 161.389V159.389ZM329 160.387C329 159.833 329.45 159.389 329.999 159.389V161.389C330.548 161.389 331 160.944 331 160.387H329ZM327 23.656C328.105 23.656 329 24.5515 329 25.656H331C331 23.4469 329.209 21.656 327 21.656V23.656ZM315.673 19.656C315.673 21.8652 317.464 23.656 319.673 23.656V21.656C318.568 21.656 317.673 20.7606 317.673 19.656H315.673ZM319.673 14.1041C317.464 14.1041 315.673 15.895 315.673 18.1041H317.673C317.673 16.9996 318.568 16.1041 319.673 16.1041V14.1041ZM329 12.1041C329 13.2087 328.105 14.1041 327 14.1041V16.1041C329.209 16.1041 331 14.3133 331 12.1041H329ZM327 7.55192C328.105 7.55192 329 8.44735 329 9.55192H331C331 7.34278 329.209 5.55192 327 5.55192V7.55192ZM319.169 3.55192C319.169 5.76106 320.96 7.55192 323.169 7.55192V5.55192C322.065 5.55192 321.169 4.65649 321.169 3.55192H319.169ZM317.169 1C318.274 1 319.169 1.89543 319.169 3H321.169C321.169 0.790861 319.378 -1 317.169 -1V1ZM304.637 2.56795C304.637 1.702 305.339 1 306.205 1V-1C304.234 -1 302.637 0.597426 302.637 2.56795H304.637ZM292.878 4.13591C292.012 4.13591 291.31 3.43391 291.31 2.56795H289.31C289.31 4.53848 290.907 6.13591 292.878 6.13591V4.13591ZM301.069 6.13591C303.039 6.13591 304.637 4.53848 304.637 2.56795H302.637C302.637 3.43391 301.935 4.13591 301.069 4.13591V6.13591Z" fill="white" mask="url(#path-1-inside-1_82_5024)"/>
</svg>
